:SAMPLES-PER-SECOND 30
:FULLY-SPECIFIED
:DEGREES
749
root  68.871 40.2451 -4.23032 -113.529 -86.4851 109.768
RightUpLeg  -0.405497 -13.3615 -15.3704
RightLeg  4.01888 -5.94118 3.33054
RightFoot  4.92476 -0.746693 5.45687
RightToes  -1.16417e-010 0 -3.6325e-017
Spine  7.04739 0.296488 1.8492
Spine1  9.30441 0.683147 -0.883374
HEad  -17.3915 17.8025 -2.12818
LeftShoulder1  9.3475 -15.7715 -42.1007
LeftArm  -38.8785 -38.1603 -6.89963
LeftForeArm  49.2122 -67.6705 -22.2615
LeftHand  -0.244104 0.0205437 5.32207
RightShoulder  5.39764 11.7188 29.4798
RightArm  5.39872 43.6062 54.869
RightForeArm  13.2359 69.4353 31.1258
RightHand  -2.17952 4.34513 -25.8487
LeftUpLeg  0.380521 6.41752 3.49818
LeftLeg  4.30716 20.4208 -3.51696
LeftFoot  1.187 0.147799 -1.4125
LeftToes  -2.09216e-011 1.96776e-011 -5.83545e-012
750
root  68.9142 40.2255 -4.42707 -89.3815 -86.9566 85.5498
RightUpLeg  -0.185711 -13.4318 -15.0921
RightLeg  4.57162 -7.40861 3.46068
RightFoot  4.45653 -0.712695 5.35231
RightToes  -1.16417e-010 0 -3.6325e-017
Spine  7.72245 0.463935 2.28331
Spine1  8.47174 1.0059 -1.24446
HEad  -18.2479 18.2672 -2.52763
LeftShoulder1  8.91077 -15.6471 -40.2606
LeftArm  -42.3612 -39.7964 -4.49323
LeftForeArm  45.742 -65.2015 -19.7756
LeftHand  -0.244104 0.0205437 5.32207
RightShoulder  5.16787 11.6757 28.0316
RightArm  7.68289 47.4854 58.5185
RightForeArm  7.49801 67.8864 29.0206
RightHand  -2.28157 4.63152 -26.2543
LeftUpLeg  -0.351966 6.76956 3.77962
LeftLeg  5.34962 18.6209 -2.75254
LeftFoot  1.08201 0.177412 -1.69076
LeftToes  -2.09216e-011 1.96776e-011 -5.83545e-012
751
root  68.9832 40.1906 -4.60507 -53.7864 -86.6392 49.9261
RightUpLeg  0.0396907 -13.4499 -14.691
RightLeg  5.18382 -9.44889 3.51793
RightFoot  3.99689 -0.673705 5.20225
RightToes  -1.16417e-010 0 -3.6325e-017
Spine  8.40104 1.00797 2.44551
Spine1  7.58027 1.5324 -0.873863
HEad  -18.2739 17.9664 -2.38293
LeftShoulder1  8.7712 -15.9174 -38.9537
LeftArm  -45.5075 -42.0865 -2.07792
LeftForeArm  40.6169 -60.6883 -16.2854
LeftHand  -0.244104 0.0205437 5.32207
RightShoulder  4.89956 11.5662 26.4384
RightArm  10.3854 50.773 62.3004
RightForeArm  -0.714416 65.0321 25.6428
RightHand  -2.67652 5.99069 -27.1089
LeftUpLeg  -1.54285 7.5304 4.02239
LeftLeg  6.89576 15.892 -1.72038
LeftFoot  0.8226 0.201048 -1.9342
LeftToes  -2.09216e-011 1.96776e-011 -5.83545e-012
752
root  69.0706 40.1403 -4.76279 -27.1667 -85.2091 23.2817
RightUpLeg  0.261521 -13.3854 -14.1361
RightLeg  5.84279 -11.7834 3.49372
RightFoot  3.47374 -0.65553 5.22143
RightToes  -1.16417e-010 0 -3.6325e-017
Spine  9.34345 2.13966 2.40755
Spine1  6.29661 2.50234 0.15686
HEad  -17.4026 16.6942 -1.65956
LeftShoulder1  9.03715 -16.6618 -38.6212
LeftArm  -47.9749 -45.2382 0.636375
LeftForeArm  35.6282 -53.9021 -12.498
LeftHand  -0.244104 0.0205437 5.32207
RightShoulder  4.63491 11.4899 24.7776
RightArm  12.7037 53.3097 65.433
RightForeArm  -10.0934 60.6412 21.5786
RightHand  -2.95853 7.03531 -27.4425
LeftUpLeg  -2.97973 8.61197 4.29882
LeftLeg  8.63642 12.5357 -0.703277
LeftFoot  0.471755 0.222477 -2.17862
LeftToes  -2.09216e-011 1.96776e-011 -5.83545e-012
753
root  69.1632 40.0698 -4.91174 -13.6453 -83.0943 9.6281
RightUpLeg  0.603937 -13.3662 -13.5638
RightLeg  6.60099 -14.2004 3.46577
RightFoot  2.72527 -0.66223 5.51524
RightToes  -1.16417e-010 0 -3.6325e-017
Spine  10.3157 2.72727 4.30928
Spine1  5.5192 3.87398 -2.27228
HEad  -17.0642 15.1802 0.320572
LeftShoulder1  8.4847 -17.0624 -35.1726
LeftArm  -49.7541 -49.1067 1.53514
LeftForeArm  31.0563 -45.2121 -9.10602
LeftHand  -0.244104 0.0205437 5.32207
RightShoulder  4.84706 12.171 24.7872
RightArm  14.612 56.1373 68.178
RightForeArm  -21.2912 54.3991 17.4324
RightHand  -2.79687 6.56019 -26.992
LeftUpLeg  -4.44435 9.65916 4.6279
LeftLeg  10.4068 8.962 0.0829329
LeftFoot  0.0917346 0.241134 -2.41446
LeftToes  -2.09216e-011 1.96776e-011 -5.83545e-012
754
root  69.2509 39.9768 -5.06194 -6.48879 -80.3067 2.2467
RightUpLeg  1.10496 -13.5869 -13.16
RightLeg  7.58184 -16.7858 3.53453
RightFoot  1.66713 -0.664152 5.92011
RightToes  -1.16417e-010 0 -3.6325e-017
Spine  11.6524 4.01696 4.41202
Spine1  4.55602 5.19837 -1.89539
HEad  -17.4308 12.5164 0.847298
LeftShoulder1  8.67685 -17.8338 -34.5546
LeftArm  -50.6119 -53.4433 3.75495
LeftForeArm  24.7715 -36.2839 -6.72214
LeftHand  -0.244104 0.0205437 5.32207
RightShoulder  4.77242 12.592 23.4394
RightArm  16.1995 58.6045 71.1558
RightForeArm  -33.5993 46.5726 13.786
RightHand  -2.32771 5.12228 -25.5794
LeftUpLeg  -5.97262 10.1114 4.92479
LeftLeg  12.1896 5.49317 0.570951
LeftFoot  -0.243752 0.255186 -2.59604
LeftToes  -2.09216e-011 1.96776e-011 -5.83545e-012
